<svg width="48" height="48" viewBox="0 0 48 48" fill="none" xmlns="http://www.w3.org/2000/svg">
<rect width="48" height="48" fill="white"/>
<path d="M21 6C18.6362 6 16.2956 6.46558 14.1117 7.37017C11.9278 8.27475 9.94353 9.60062 8.27208 11.2721C6.60062 12.9435 5.27475 14.9278 4.37017 17.1117C3.46558 19.2956 3 21.6362 3 24C3 26.3638 3.46558 28.7044 4.37017 30.8883C5.27475 33.0722 6.60062 35.0565 8.27208 36.7279C9.94353 38.3994 11.9278 39.7252 14.1117 40.6298C16.2956 41.5344 18.6362 42 21 42L21 24L21 6Z" fill="#553BF9"/>
<ellipse cx="32" cy="23.5" rx="8" ry="7.5" fill="#FF7C54"/>
</svg>
