<?xml version="1.0" ?><svg xmlns="http://www.w3.org/2000/svg" width="254" height="54.456" viewBox="0 0 254 54.456"><g transform="translate(-171.994 -276)"><g transform="translate(171.994 276)"><g transform="translate(0 11.564)"><path d="M-924.693-803.916h-8.6V-806.6a11.916,11.916,0,0,0-.245-3.175,1.1,1.1,0,0,0-1.164-.639,1.107,1.107,0,0,0-1.083.547,8.011,8.011,0,0,0-.286,2.81v14.178a7.591,7.591,0,0,0,.286,2.618,1.13,1.13,0,0,0,1.144.63,1.278,1.278,0,0,0,1.276-.712,7.483,7.483,0,0,0,.337-2.773v-3.5h-1.736v-4.489h10.069v15.856h-5.4l-.8-2.117a5.71,5.71,0,0,1-2.218,2.053,6.858,6.858,0,0,1-3.158.684,8.992,8.992,0,0,1-4.058-.94A7.51,7.51,0,0,1-943.2-787.9a6.9,6.9,0,0,1-1.227-2.91,31.254,31.254,0,0,1-.245-4.57v-8.777a26.338,26.338,0,0,1,.511-6.149,6.4,6.4,0,0,1,2.931-3.512,11.174,11.174,0,0,1,6.26-1.6,12.774,12.774,0,0,1,6.271,1.387,6.829,6.829,0,0,1,3.248,3.293,15.714,15.714,0,0,1,.756,5.538Z" transform="translate(944.669 815.411)" fill="#fff"/><path d="M-886.221-813.855h6.087a52.051,52.051,0,0,1,8.242.419,5.735,5.735,0,0,1,3.513,2.144q1.358,1.724,1.358,5.5,0,3.448-.96,4.635t-3.778,1.423a6.762,6.762,0,0,1,3.432,1.514,4.408,4.408,0,0,1,1.093,1.742,24.659,24.659,0,0,1,.214,4.37v7.791h-7.986v-9.816a6.119,6.119,0,0,0-.419-2.938q-.419-.565-2.2-.566v13.32h-8.6Zm8.6,5.054v6.569a4.165,4.165,0,0,0,2.032-.356q.582-.356.582-2.308v-1.624a2.289,2.289,0,0,0-.561-1.843A3.492,3.492,0,0,0-877.622-808.8Z" transform="translate(909.527 814.475)" fill="#fff"/><path d="M-817.8-813.855l4.917,29.541h-8.788l-.461-5.31h-3.076l-.517,5.31h-8.89l4.386-29.541Zm-4.558,18.994q-.652-5.019-1.309-12.408-1.314,8.485-1.65,12.408Z" transform="translate(878.496 814.475)" fill="#fff"/><path d="M-757.085-813.855v19.742a30.621,30.621,0,0,1-.245,4.717,6.113,6.113,0,0,1-1.45,2.792,7.49,7.49,0,0,1-3.176,2.171,13.236,13.236,0,0,1-4.647.739,14.45,14.45,0,0,1-5.229-.876,7.834,7.834,0,0,1-3.391-2.281,5.95,5.95,0,0,1-1.327-2.965,64.452,64.452,0,0,1-.2-6.56v-17.48h8.6V-791.7a7.841,7.841,0,0,0,.235,2.473.93.93,0,0,0,.95.538,1,1,0,0,0,1.052-.593,9.907,9.907,0,0,0,.235-2.8v-21.768Z" transform="translate(843.709 814.475)" fill="#fff"/></g><g transform="translate(93.046)"><path d="M-677.094-811.463a8.41,8.41,0,0,1-6.97,3,8.422,8.422,0,0,1-7.895-8.919,8.422,8.422,0,0,1,8.919-7.895,8.388,8.388,0,0,1,5.185,2.2l13.286-13.079a27.141,27.141,0,0,0-19.523-8.258,27.228,27.228,0,0,0-27.228,27.228,27.228,27.228,0,0,0,27.228,27.228,27.155,27.155,0,0,0,20.113-8.876Z" transform="translate(711.32 844.412)" fill="#fff"/><path d="M-640.514-779.363l27.144.017-2.795,27.887Z" transform="translate(668.747 805.3)" fill="#fff"/></g><g transform="translate(189.09 32.462)"><path d="M-463.635-756.411l1.616.163a4.844,4.844,0,0,1-1.6,2.263,4.446,4.446,0,0,1-2.989,1.072,4.071,4.071,0,0,1-1.988-.5,3.263,3.263,0,0,1-1.378-1.44A4.75,4.75,0,0,1-470.45-757a6.8,6.8,0,0,1,.739-3.067,5.236,5.236,0,0,1,1.915-2.208,4.769,4.769,0,0,1,2.544-.722,3.709,3.709,0,0,1,2.788,1.073A4.021,4.021,0,0,1-461.423-759a8.589,8.589,0,0,1-.128,1.454h-7.181a3.856,3.856,0,0,0-.037.509,3.035,3.035,0,0,0,.628,2.068,1.977,1.977,0,0,0,1.539.713,2.989,2.989,0,0,0,1.68-.555A3.623,3.623,0,0,0-463.635-756.411Zm-4.831-2.391h5.473c.006-.169.01-.291.01-.364a2.655,2.655,0,0,0-.625-1.9,2.119,2.119,0,0,0-1.607-.659,2.972,2.972,0,0,0-1.942.727A4.346,4.346,0,0,0-468.466-758.8Z" transform="translate(470.45 763)" fill="#fff"/><path d="M-446.727-752.8l4.243-4.9-2.434-4.753h1.836l.827,1.718q.459.963.826,1.845l2.81-3.563h2.03l-4.1,4.88,2.461,4.771h-1.836l-.974-1.963q-.312-.628-.707-1.554l-2.9,3.517Z" transform="translate(456.186 762.671)" fill="#fff"/><path d="M-423.557-749.431l2.819-13.351h1.534l-.284,1.345a6.1,6.1,0,0,1,1.529-1.222,3.121,3.121,0,0,1,1.428-.341,3,3,0,0,1,2.314,1,4.114,4.114,0,0,1,.918,2.876,7.239,7.239,0,0,1-.5,2.749,6.155,6.155,0,0,1-1.24,1.995,5.213,5.213,0,0,1-1.487,1.108,3.586,3.586,0,0,1-1.543.355,2.985,2.985,0,0,1-2.719-1.763l-1.1,5.244Zm3.287-7.643a4.87,4.87,0,0,0,.156,1.5,2.034,2.034,0,0,0,.753.954,2.072,2.072,0,0,0,1.212.364,2.619,2.619,0,0,0,2.315-1.595,6.663,6.663,0,0,0,.882-3.258,2.761,2.761,0,0,0-.593-1.895,1.889,1.889,0,0,0-1.473-.668,2.213,2.213,0,0,0-1.176.332,3.49,3.49,0,0,0-1.006.991,5.886,5.886,0,0,0-.767,1.613A5.615,5.615,0,0,0-420.27-757.074Z" transform="translate(442.255 763)" fill="#fff"/><path d="M-395.276-753.13l2.039-9.651h1.47l-.413,1.972a6.721,6.721,0,0,1,1.474-1.654,2.446,2.446,0,0,1,1.473-.536,2.914,2.914,0,0,1,1.222.354l-.68,1.527a1.589,1.589,0,0,0-.945-.309,2.571,2.571,0,0,0-1.792.963A7.284,7.284,0,0,0-392.87-757l-.827,3.872Z" transform="translate(425.251 763)" fill="#fff"/><path d="M-371.878-756.411l1.616.163a4.843,4.843,0,0,1-1.6,2.263,4.447,4.447,0,0,1-2.989,1.072,4.068,4.068,0,0,1-1.988-.5,3.263,3.263,0,0,1-1.378-1.44,4.749,4.749,0,0,1-.473-2.154,6.808,6.808,0,0,1,.739-3.067,5.237,5.237,0,0,1,1.915-2.208,4.77,4.77,0,0,1,2.544-.722,3.708,3.708,0,0,1,2.787,1.073A4.019,4.019,0,0,1-369.665-759a8.543,8.543,0,0,1-.129,1.454h-7.181a3.856,3.856,0,0,0-.037.509,3.035,3.035,0,0,0,.628,2.068,1.976,1.976,0,0,0,1.539.713,2.99,2.99,0,0,0,1.681-.555A3.623,3.623,0,0,0-371.878-756.411Zm-4.831-2.391h5.473c.006-.169.01-.291.01-.364a2.655,2.655,0,0,0-.625-1.9,2.119,2.119,0,0,0-1.607-.659,2.972,2.972,0,0,0-1.942.727A4.346,4.346,0,0,0-376.708-758.8Z" transform="translate(415.28 763)" fill="#fff"/><path d="M-352.949-756.429l1.662-.1a3,3,0,0,0,.22,1.209,1.742,1.742,0,0,0,.813.818,2.876,2.876,0,0,0,1.382.318,2.631,2.631,0,0,0,1.652-.437,1.282,1.282,0,0,0,.551-1.027,1.219,1.219,0,0,0-.331-.809,5.246,5.246,0,0,0-1.657-.941,15.818,15.818,0,0,1-1.686-.786,2.7,2.7,0,0,1-.927-.877,2.155,2.155,0,0,1-.312-1.159,2.541,2.541,0,0,1,.918-1.963,3.737,3.737,0,0,1,2.572-.818,4.124,4.124,0,0,1,2.8.841,2.909,2.909,0,0,1,1,2.213l-1.625.109a1.843,1.843,0,0,0-.624-1.382,2.461,2.461,0,0,0-1.662-.509,2.062,2.062,0,0,0-1.341.391,1.1,1.1,0,0,0-.478.845,1.021,1.021,0,0,0,.413.8,6.906,6.906,0,0,0,1.423.727,9.657,9.657,0,0,1,2.406,1.291,2.443,2.443,0,0,1,.79,1.836,2.573,2.573,0,0,1-.445,1.408,3.056,3.056,0,0,1-1.359,1.1,5.187,5.187,0,0,1-2.153.414,4.892,4.892,0,0,1-2.875-.827A2.915,2.915,0,0,1-352.949-756.429Z" transform="translate(399.803 763)" fill="#fff"/><path d="M-329.363-756.429l1.662-.1a2.981,2.981,0,0,0,.221,1.209,1.741,1.741,0,0,0,.813.818,2.873,2.873,0,0,0,1.382.318,2.633,2.633,0,0,0,1.653-.437,1.281,1.281,0,0,0,.551-1.027,1.218,1.218,0,0,0-.33-.809,5.254,5.254,0,0,0-1.658-.941,15.774,15.774,0,0,1-1.685-.786,2.7,2.7,0,0,1-.928-.877,2.148,2.148,0,0,1-.312-1.159,2.541,2.541,0,0,1,.918-1.963A3.736,3.736,0,0,1-324.5-763a4.12,4.12,0,0,1,2.8.841,2.909,2.909,0,0,1,1,2.213l-1.625.109a1.845,1.845,0,0,0-.624-1.382,2.463,2.463,0,0,0-1.663-.509,2.06,2.06,0,0,0-1.341.391,1.1,1.1,0,0,0-.478.845,1.021,1.021,0,0,0,.414.8,6.92,6.92,0,0,0,1.424.727,9.629,9.629,0,0,1,2.406,1.291,2.444,2.444,0,0,1,.79,1.836,2.573,2.573,0,0,1-.445,1.408,3.058,3.058,0,0,1-1.36,1.1,5.186,5.186,0,0,1-2.153.414,4.894,4.894,0,0,1-2.875-.827A2.913,2.913,0,0,1-329.363-756.429Z" transform="translate(385.622 763)" fill="#fff"/></g><g transform="translate(153.108 5.863)"><path d="M-560.69-808.8V-828.85h3.49V-808.8Z" transform="translate(560.69 829.192)" fill="#fff"/><path d="M-544.993-808.436a8.484,8.484,0,0,1,.858-3.705,6.227,6.227,0,0,1,2.428-2.735,6.682,6.682,0,0,1,3.508-.943,6.282,6.282,0,0,1,4.906,2.14,7.813,7.813,0,0,1,1.913,5.408,7.9,7.9,0,0,1-1.931,5.462,6.234,6.234,0,0,1-4.862,2.167,7.093,7.093,0,0,1-3.459-.9,5.9,5.9,0,0,1-2.5-2.646A9.549,9.549,0,0,1-544.993-808.436Zm3.577.205a5.14,5.14,0,0,0,.932,3.309,2.852,2.852,0,0,0,2.3,1.149,2.834,2.834,0,0,0,2.291-1.149,5.216,5.216,0,0,0,.925-3.336,5.119,5.119,0,0,0-.925-3.282,2.835,2.835,0,0,0-2.291-1.148,2.852,2.852,0,0,0-2.3,1.148A5.142,5.142,0,0,0-541.416-808.231Z" transform="translate(551.252 821.358)" fill="#fff"/><path d="M-505.5-800.013l3.987.533a1.559,1.559,0,0,0,.459,1.053,2.439,2.439,0,0,0,1.565.41,3.761,3.761,0,0,0,2.049-.451,1.842,1.842,0,0,0,.7-.971,6.42,6.42,0,0,0,.161-1.764v-2.119a4.623,4.623,0,0,1-3.949,2.352,4.76,4.76,0,0,1-4.21-2.475,9.051,9.051,0,0,1-1.217-4.868,8.547,8.547,0,0,1,1.6-5.579,4.953,4.953,0,0,1,3.968-1.928,4.724,4.724,0,0,1,4.036,2.366v-2.038h3.267v13.031a14.2,14.2,0,0,1-.386,3.842,4.861,4.861,0,0,1-1.08,2,4.678,4.678,0,0,1-1.857,1.136,8.943,8.943,0,0,1-2.937.409q-3.354,0-4.757-1.264a4.128,4.128,0,0,1-1.4-3.206C-505.517-799.676-505.513-799.831-505.5-800.013Zm3.117-8.519a5.634,5.634,0,0,0,.813,3.385,2.439,2.439,0,0,0,2.006,1.073,2.674,2.674,0,0,0,2.161-1.1,5.132,5.132,0,0,0,.882-3.261,5.458,5.458,0,0,0-.844-3.35,2.592,2.592,0,0,0-2.136-1.094,2.493,2.493,0,0,0-2.069,1.073A5.408,5.408,0,0,0-502.387-808.532Z" transform="translate(527.785 821.358)" fill="#fff"/><path d="M-465.69-825.62l1.714-4.088h3.912l-3.415,4.088Zm.261,16.3v-14.521h3.49v14.521Z" transform="translate(503.57 829.708)" fill="#fff"/><path d="M-450.395-805.114l3.5-.588a2.889,2.889,0,0,0,.906,1.7,2.865,2.865,0,0,0,1.913.581,3.215,3.215,0,0,0,2.038-.547,1.268,1.268,0,0,0,.459-1.026,1.071,1.071,0,0,0-.248-.725,2.654,2.654,0,0,0-1.168-.506,17.667,17.667,0,0,1-5.353-1.873,3.857,3.857,0,0,1-1.565-3.268,4.2,4.2,0,0,1,1.353-3.172,5.92,5.92,0,0,1,4.2-1.286,6.785,6.785,0,0,1,4.024.971,4.987,4.987,0,0,1,1.814,2.871l-3.291.67a2.259,2.259,0,0,0-.8-1.3,2.726,2.726,0,0,0-1.683-.451,3.506,3.506,0,0,0-1.975.424.935.935,0,0,0-.4.78.875.875,0,0,0,.348.7,12.248,12.248,0,0,0,3.26,1.08,9.231,9.231,0,0,1,3.893,1.709,3.727,3.727,0,0,1,1.093,2.858,4.565,4.565,0,0,1-1.515,3.432,6.292,6.292,0,0,1-4.484,1.435,6.851,6.851,0,0,1-4.266-1.2A5.57,5.57,0,0,1-450.395-805.114Z" transform="translate(494.374 821.358)" fill="#fff"/><path d="M-407.959-822.729v3.063h-2.384v5.852a15.928,15.928,0,0,0,.069,2.071.844.844,0,0,0,.311.486.92.92,0,0,0,.59.191,4.172,4.172,0,0,0,1.4-.369l.3,2.981a6.386,6.386,0,0,1-2.757.574,4.019,4.019,0,0,1-1.7-.348,2.521,2.521,0,0,1-1.112-.9,3.8,3.8,0,0,1-.49-1.5,20.571,20.571,0,0,1-.111-2.708v-6.331h-1.6v-3.063h1.6v-2.885l3.5-2.243v5.127Z" transform="translate(473.362 828.594)" fill="#fff"/><path d="M-390.592-825.3v-3.555h3.49v3.555Zm0,16.49v-14.521h3.49V-808.8Z" transform="translate(458.417 829.192)" fill="#fff"/><path d="M-362.529-811.2l-3.44.683a2.852,2.852,0,0,0-.789-1.709,2.244,2.244,0,0,0-1.6-.574,2.508,2.508,0,0,0-2.081.991,5.466,5.466,0,0,0-.776,3.316,6.34,6.34,0,0,0,.788,3.651,2.5,2.5,0,0,0,2.118,1.067,2.227,2.227,0,0,0,1.628-.622,3.911,3.911,0,0,0,.894-2.14l3.428.643a6.864,6.864,0,0,1-2.049,3.924,5.946,5.946,0,0,1-4.062,1.326,5.763,5.763,0,0,1-4.613-2.01,8.288,8.288,0,0,1-1.72-5.565,8.308,8.308,0,0,1,1.727-5.6,5.846,5.846,0,0,1,4.67-2,5.948,5.948,0,0,1,3.832,1.142A6.407,6.407,0,0,1-362.529-811.2Z" transform="translate(448.921 821.358)" fill="#fff"/><path d="M-336.169-811.062l-3.168-.629a5.5,5.5,0,0,1,1.839-3.118,6.25,6.25,0,0,1,3.875-1.012,7.674,7.674,0,0,1,3.478.608,3.6,3.6,0,0,1,1.608,1.545,8.635,8.635,0,0,1,.466,3.439l-.037,4.485a17.132,17.132,0,0,0,.167,2.823,8.791,8.791,0,0,0,.628,1.949h-3.453q-.137-.383-.335-1.135c-.059-.228-.1-.378-.125-.451a6.29,6.29,0,0,1-1.913,1.435,5.047,5.047,0,0,1-2.174.479,4.251,4.251,0,0,1-3.21-1.217,4.253,4.253,0,0,1-1.173-3.077,4.445,4.445,0,0,1,.534-2.195,3.627,3.627,0,0,1,1.5-1.477,10.9,10.9,0,0,1,2.776-.9,17.613,17.613,0,0,0,3.39-.944v-.383a2.11,2.11,0,0,0-.5-1.579,2.771,2.771,0,0,0-1.876-.472,2.323,2.323,0,0,0-1.452.4A2.828,2.828,0,0,0-336.169-811.062Zm4.67,3.118a20.225,20.225,0,0,1-2.124.588,6,6,0,0,0-1.9.67,1.648,1.648,0,0,0-.683,1.354,1.977,1.977,0,0,0,.547,1.394,1.814,1.814,0,0,0,1.391.588,2.848,2.848,0,0,0,1.8-.684,2.409,2.409,0,0,0,.832-1.271,8.345,8.345,0,0,0,.136-1.873Z" transform="translate(427.815 821.358)" fill="#fff"/></g></g></g></svg>